Patient4_TMGait_0pt6_01_left_06_EMG.mot
version=1
nRows=20
nColumns=33
inDegrees=no
endheader
time	1LAddLong	2LGlutMax	3LGlutMed	4LIliopsoas	5LSemiMemb	6LBicFemLong	7LRecFem	8LVastMed	9LVastLat	10LGasMed	11LTibAnt	12lTibPost	13LPeroneusLong	14LSol	15LExtDigLong	16LFlexDigLong	17RAddLong	18RGlutMax	19RGlutMed	20RIliopsoas	21RSemiMemb	22RBicFemLong	23RRecFem	24RVastMed	25RVastLat	26RGasMed	27RTibAnt	28RTibPost	29RPeroneusLong	30RSol	31RExtDigLong	32RFlexDigLong
7.29	0.002136	-0.15228	0.003662	-0.007782	0.005951	-0.03952	-0.083771	0.011597	-0.16037	-0.000458	-0.35172	0.003052	0.037079	0.002594	0.29236	0.015869	0.001221	-1.18	0.29694	-0.056	0.13367	-0.17761	-0.48279	-0.1239	0.012207	0.016632	0.14465	-0.019226	1.8015	0.17471	-0.003967	-0.007324
7.291	-0.012512	-0.09491	0.00412	0.00061	-0.001068	-0.047302	-0.10696	-0.007629	-0.18219	-0.020447	-0.11826	0.010223	0.097656	0.11032	0.23361	0.00351	0.019836	-1.2782	0.027161	-0.05249	0.12436	-0.26871	-0.19424	0.084229	0.027161	0.018158	0.001221	-0.03006	1.2926	0.21683	-0.003967	-0.00351
7.292	-0.007019	-0.038605	0.007172	0.000305	-0.000916	-0.037994	-0.072479	0.004425	-0.17685	-0.033875	-0.065765	0.013123	0.087891	0.13611	0.018158	0.006409	0.036621	-1.3419	-0.31998	-0.055084	0.095673	-0.26306	-0.020294	0.10147	0.01297	-0.007172	0.092621	-0.011444	-1.2834	0.18723	-0.002441	-0.002136
7.293	0.002441	0.042267	-0.002136	-0.003967	0.005341	-0.042419	-0.065155	0.013428	-0.19745	-0.02594	0.046387	0.009003	0.06485	0.06485	0.3305	-0.000305	0.038605	-1.3289	-0.10162	0.031281	-0.017548	-0.24979	-0.037384	-0.041809	-0.00412	-0.013428	0.13992	0.075836	-1.2289	0.093536	-0.00061	-0.005188
7.294	0.002289	0.1561	-0.009155	-0.006866	0.006409	-0.047913	-0.084076	0.006104	-0.20645	-0.019989	0.10773	0.011139	0.097351	0.076447	0.2803	0.00946	0.045624	-1.3057	0.088654	0.13214	-0.036163	-0.21973	0.048218	-0.087738	-0.036469	0.002441	0.00946	0.019073	0.5455	-0.062561	-0.001373	-0.003662
7.295	-0.005188	0.20004	-0.014496	0.00824	0.009766	-0.006714	-0.081329	0.012207	-0.20966	-0.035095	0.053864	0.009918	0.16098	0.076599	0.084991	0.011444	0.045013	-1.2767	0.06012	0.1355	-0.078735	-0.086975	0.033875	-0.12741	-0.025177	0.00061	0.51498	0.001984	1.1714	-0.037384	-0.001526	-0.000763
7.296	-0.001068	0.25711	-0.026855	0.028229	0.01236	0.028839	-0.043793	0.006714	-0.23605	-0.00946	-0.069733	0.013123	0.047455	0.006104	-0.10956	-0.007172	0.056	-1.3121	0.028992	0.053101	-0.000153	-0.051727	0.027313	-0.18829	0.021515	-0.010071	0.76645	-0.007019	0.3894	-0.047913	-0.005341	-0.007019
7.297	-0.018005	0.3064	-0.00946	0.006866	0.020294	0.042572	-0.069733	0.005493	-0.25207	0.010071	-0.12283	0.011749	-0.028381	-0.076904	-0.16449	0.000305	0.037079	-1.1707	0.010529	0.035706	-0.1535	0.004578	0.001678	-0.13672	0.049591	-0.002441	-0.49103	0	-0.074158	0.013885	-0.00824	-0.008698
7.298	-0.006561	0.30304	-0.008392	0.00946	0.011139	0.053101	-0.049591	0.01297	-0.26581	0.013275	0.001068	0	0.011749	-0.071106	-0.12116	-0.002747	-0.018311	-1.0654	0.14221	0.031128	-0.224	0.11627	0.006866	0.027161	0.059509	0.019531	-0.83862	-0.003204	0.09964	0.093689	-0.002136	-0.012207
7.299	-0.010376	0.34485	-0.020142	0.017242	-0.026093	0.015564	-0.052185	0.00946	-0.29282	-0.015717	-0.007324	0.013733	0.068512	-0.007019	0.2359	0.002136	-0.001678	-0.95871	0.15915	0.06073	-0.20081	0.15121	0.11169	0.060425	0.033264	0.041962	-0.31937	0.002289	1.2256	-0.010681	-0.002441	0.000305
7.3	-0.004578	0.32044	-0.015564	0.007935	-0.003815	0.009308	-0.05722	-0.001068	-0.31601	-0.037842	-0.083466	0.014343	0.016022	-0.047607	0.09491	0.00885	-0.034637	-0.89096	0.3035	-0.042267	-0.1001	0.16327	0.25803	0.21515	0.019531	0.057373	-0.11597	0.000305	0.25818	-0.13412	-0.00412	-0.003204
7.301	-0.002289	0.33936	-0.02182	0.000305	-0.017242	-0.008698	-0.06073	0.015869	-0.36118	-0.031586	-0.06485	0.01297	0.035095	-0.04303	0.24048	0.007935	-0.059052	-0.74799	0.28748	-0.080719	-0.040894	0.1915	0.33722	0.19867	-0.017242	0.041199	0.25879	0.000305	-0.39581	0.066376	-0.007782	-0.005493
7.302	0.007172	0.28915	-0.026245	-0.004578	-0.034332	0.010223	-0.060577	0.005493	-0.36804	-0.036926	0.16312	0.01297	0.066223	-0.029297	-0.36713	0.003204	-0.06073	-0.71747	0.11871	-0.047607	0.1828	0.19547	0.39963	0.10132	-0.12314	0.013123	0.50064	-0.001068	0.76446	-0.006409	-0.002594	-0.014954
7.303	0.000153	0.27603	-0.042572	0.009766	-0.027008	0.00473	-0.056152	0.014648	-0.3685	-0.045013	0.32944	0.01236	0.13306	-0.024872	-0.39505	0.01358	-0.056915	-0.63431	0.039825	0.083618	0.19638	0.19302	-0.00824	0.004578	-0.1059	-0.014343	0.30456	-0.00473	0.41885	-0.089111	-0.006104	-0.005035
7.304	0.007019	0.25772	-0.04425	0.004272	-0.044556	-0.001068	-0.071869	0.00946	-0.39368	-0.010681	0.28244	0.017548	0.0177	-0.024109	0.15945	0.016785	-0.042419	-0.53009	0.042877	0.22781	0.08728	0.075531	-0.1738	-0.013123	-0.093994	-0.023499	-0.077209	-0.002441	-0.50842	-0.14191	-0.004425	-0.001831
7.305	0.007629	0.26688	-0.042267	-0.002899	-0.046997	-0.031433	-0.072784	0.007935	-0.41473	0.010376	-0.007629	0.010529	-0.005493	0.059357	0.064087	0.006256	-0.005188	-0.30807	0.20889	0.21957	0.025177	-0.059814	-0.11566	-0.059662	-0.21362	-0.018768	-0.48126	-0.000763	-0.086212	0.046387	0.00061	0.003204
7.306	0.006104	0.24933	-0.037537	0.012817	0.014038	-0.033722	-0.053558	0.010529	-0.43381	0.00061	-0.2359	0.013123	0.043945	0.067596	-0.068054	0.003815	-0.002747	-0.40817	-0.31296	0.12726	0.000153	-0.063019	-0.45288	-0.13138	-0.233	-0.030518	-0.45059	-0.002289	-0.37659	0.19684	-0.003357	-0.005951
7.307	0.001068	0.22781	-0.048676	-0.006409	0.012512	0.001678	-0.056458	-0.005646	-0.45654	-0.025635	-0.19272	0.023651	0.078735	0.058289	0.55008	0.001984	-0.005188	-0.35919	-0.25162	-0.021667	-0.001984	-0.088196	-0.71549	0.087433	0.077209	-0.02533	-0.3305	0.002441	-0.68268	0.28671	0.001221	-0.007782
7.308	-0.000153	0.19898	-0.053253	-0.001221	-0.017853	0.004425	-0.068665	0.010376	-0.49683	-0.028992	-0.054626	0.016174	0.045471	0.001831	0.1619	-0.002747	0.000153	-0.28259	-0.47348	0.031128	-0.026855	-0.058899	-0.52094	0.20142	0.25391	-0.025635	-0.088196	-0.000916	0.38589	0.2417	-0.001526	-0.001831
7.309	0.010681	0.17868	-0.06424	0.014191	-0.005798	0.002899	-0.060577	0.009918	-0.55206	-0.031586	-0.01358	0.019226	0.004425	-0.045776	-0.2533	0.007629	0.013123	-0.22751	-0.10544	-0.008392	-0.049591	-0.028534	-0.28153	0.026093	0.2095	-0.033417	-0.07843	-0.00061	0.53131	0.10803	0.003357	-0.001221
